<mxfile host="app.diagrams.net" modified="2022-09-07T09:24:47.613Z" agent="5.0 (Windows NT 10.0; Win64; x64) AppleWebKit/537.36 (KHTML, like Gecko) Chrome/103.0.0.0 Safari/537.36" etag="p8s1yrSrnkgWj617KaST" version="20.2.8" type="github">
  <diagram id="d25Y82dyupePdKxs2Xmk" name="Page-1">
    <mxGraphModel dx="2498" dy="1139" grid="1" gridSize="10" guides="1" tooltips="1" connect="1" arrows="1" fold="1" page="1" pageScale="1" pageWidth="827" pageHeight="1169" math="0" shadow="0">
      <root>
        <mxCell id="0" />
        <mxCell id="1" parent="0" />
        <mxCell id="khi4Rz78MZYqU8x7mJag-1" value="&lt;div style=&quot;background-color: rgb(255, 255, 255); font-family: Consolas, Consolas, &amp;quot;Courier New&amp;quot;, monospace; font-size: 18px; line-height: 24px;&quot;&gt;HandlerMeetingJoin&lt;/div&gt;&lt;div style=&quot;background-color: rgb(255, 255, 255); font-family: Consolas, Consolas, &amp;quot;Courier New&amp;quot;, monospace; font-size: 18px; line-height: 24px;&quot;&gt;&lt;div style=&quot;line-height: 24px;&quot;&gt;IsSuccDoServiceLogicAfterResponseDefaultV2&lt;/div&gt;&lt;/div&gt;" style="rounded=0;whiteSpace=wrap;html=1;" vertex="1" parent="1">
          <mxGeometry x="190" y="40" width="420" height="60" as="geometry" />
        </mxCell>
        <mxCell id="khi4Rz78MZYqU8x7mJag-2" value="&lt;div style=&quot;background-color: rgb(255, 255, 255); font-family: Consolas, Consolas, &amp;quot;Courier New&amp;quot;, monospace; font-size: 18px; line-height: 24px;&quot;&gt;HandlerMeetingJoin&lt;/div&gt;&lt;div style=&quot;background-color: rgb(255, 255, 255); font-family: Consolas, Consolas, &amp;quot;Courier New&amp;quot;, monospace; font-size: 18px; line-height: 24px;&quot;&gt;&lt;div style=&quot;line-height: 24px;&quot;&gt;&lt;div style=&quot;line-height: 24px;&quot;&gt;LiveProcAfterResponse&lt;/div&gt;&lt;/div&gt;&lt;/div&gt;" style="rounded=0;whiteSpace=wrap;html=1;" vertex="1" parent="1">
          <mxGeometry x="190" y="150" width="420" height="60" as="geometry" />
        </mxCell>
        <mxCell id="khi4Rz78MZYqU8x7mJag-3" value="" style="endArrow=none;html=1;rounded=0;" edge="1" parent="1">
          <mxGeometry width="50" height="50" relative="1" as="geometry">
            <mxPoint x="80" y="280" as="sourcePoint" />
            <mxPoint x="280" y="210" as="targetPoint" />
          </mxGeometry>
        </mxCell>
        <mxCell id="khi4Rz78MZYqU8x7mJag-4" value="&lt;div style=&quot;background-color: rgb(255, 255, 255); font-family: Consolas, Consolas, &amp;quot;Courier New&amp;quot;, monospace; font-size: 18px; line-height: 24px;&quot;&gt;is_waiting_room_logic_&lt;/div&gt;&lt;div style=&quot;background-color: rgb(255, 255, 255); font-family: Consolas, Consolas, &amp;quot;Courier New&amp;quot;, monospace; font-size: 18px; line-height: 24px;&quot;&gt;&lt;b&gt;break&lt;/b&gt;&lt;/div&gt;" style="rounded=0;whiteSpace=wrap;html=1;" vertex="1" parent="1">
          <mxGeometry x="30" y="280" width="260" height="80" as="geometry" />
        </mxCell>
        <mxCell id="khi4Rz78MZYqU8x7mJag-5" value="" style="endArrow=none;html=1;rounded=0;" edge="1" parent="1">
          <mxGeometry width="50" height="50" relative="1" as="geometry">
            <mxPoint x="680" y="280" as="sourcePoint" />
            <mxPoint x="540" y="210" as="targetPoint" />
          </mxGeometry>
        </mxCell>
        <mxCell id="khi4Rz78MZYqU8x7mJag-6" value="&lt;div style=&quot;background-color: rgb(255, 255, 255); font-family: Consolas, Consolas, &amp;quot;Courier New&amp;quot;, monospace; font-size: 18px; line-height: 24px;&quot;&gt;连网重新入会逻辑&lt;/div&gt;" style="rounded=0;whiteSpace=wrap;html=1;" vertex="1" parent="1">
          <mxGeometry x="500" y="280" width="260" height="80" as="geometry" />
        </mxCell>
        <mxCell id="khi4Rz78MZYqU8x7mJag-7" value="&lt;div style=&quot;background-color: rgb(255, 255, 255); font-family: Consolas, Consolas, &amp;quot;Courier New&amp;quot;, monospace; font-size: 18px; line-height: 24px;&quot;&gt;member_opt设置&lt;/div&gt;" style="rounded=0;whiteSpace=wrap;html=1;" vertex="1" parent="1">
          <mxGeometry x="890" y="170" width="210" height="60" as="geometry" />
        </mxCell>
        <mxCell id="khi4Rz78MZYqU8x7mJag-8" value="&lt;div style=&quot;background-color: rgb(255, 255, 255); font-family: Consolas, Consolas, &amp;quot;Courier New&amp;quot;, monospace; font-size: 18px; line-height: 24px;&quot;&gt;&lt;div style=&quot;line-height: 24px;&quot;&gt;sendMsgToLive&lt;/div&gt;&lt;/div&gt;" style="rounded=0;whiteSpace=wrap;html=1;" vertex="1" parent="1">
          <mxGeometry x="890" y="270" width="210" height="60" as="geometry" />
        </mxCell>
        <mxCell id="khi4Rz78MZYqU8x7mJag-9" value="&lt;div style=&quot;background-color: rgb(255, 255, 255); font-family: Consolas, Consolas, &amp;quot;Courier New&amp;quot;, monospace; font-size: 18px; line-height: 24px;&quot;&gt;&lt;div style=&quot;line-height: 24px;&quot;&gt;&lt;div style=&quot;line-height: 24px;&quot;&gt;NotifyUserOptByKafka&lt;/div&gt;&lt;/div&gt;&lt;/div&gt;" style="rounded=0;whiteSpace=wrap;html=1;" vertex="1" parent="1">
          <mxGeometry x="890" y="370" width="210" height="60" as="geometry" />
        </mxCell>
        <mxCell id="khi4Rz78MZYqU8x7mJag-10" value="" style="endArrow=none;html=1;rounded=0;exitX=1;exitY=0.25;exitDx=0;exitDy=0;" edge="1" parent="1" source="khi4Rz78MZYqU8x7mJag-6">
          <mxGeometry width="50" height="50" relative="1" as="geometry">
            <mxPoint x="840" y="250" as="sourcePoint" />
            <mxPoint x="890" y="200" as="targetPoint" />
          </mxGeometry>
        </mxCell>
        <mxCell id="khi4Rz78MZYqU8x7mJag-11" value="" style="endArrow=none;html=1;rounded=0;exitX=1;exitY=0.5;exitDx=0;exitDy=0;" edge="1" parent="1" source="khi4Rz78MZYqU8x7mJag-6">
          <mxGeometry width="50" height="50" relative="1" as="geometry">
            <mxPoint x="760" y="400" as="sourcePoint" />
            <mxPoint x="890" y="300" as="targetPoint" />
          </mxGeometry>
        </mxCell>
        <mxCell id="khi4Rz78MZYqU8x7mJag-12" value="" style="endArrow=none;html=1;rounded=0;exitX=1.006;exitY=0.892;exitDx=0;exitDy=0;exitPerimeter=0;" edge="1" parent="1" source="khi4Rz78MZYqU8x7mJag-6">
          <mxGeometry width="50" height="50" relative="1" as="geometry">
            <mxPoint x="760" y="420" as="sourcePoint" />
            <mxPoint x="890" y="400" as="targetPoint" />
          </mxGeometry>
        </mxCell>
        <mxCell id="khi4Rz78MZYqU8x7mJag-13" value="" style="endArrow=none;html=1;rounded=0;exitX=1.006;exitY=0.892;exitDx=0;exitDy=0;exitPerimeter=0;entryX=0.5;entryY=0;entryDx=0;entryDy=0;" edge="1" parent="1" target="khi4Rz78MZYqU8x7mJag-2">
          <mxGeometry width="50" height="50" relative="1" as="geometry">
            <mxPoint x="399.99999999999994" y="99.99999999999989" as="sourcePoint" />
            <mxPoint x="528.44" y="148.64" as="targetPoint" />
          </mxGeometry>
        </mxCell>
        <mxCell id="khi4Rz78MZYqU8x7mJag-14" value="" style="endArrow=none;html=1;rounded=0;exitX=1.006;exitY=0.892;exitDx=0;exitDy=0;exitPerimeter=0;" edge="1" parent="1">
          <mxGeometry width="50" height="50" relative="1" as="geometry">
            <mxPoint x="399.5" y="210" as="sourcePoint" />
            <mxPoint x="400" y="430" as="targetPoint" />
          </mxGeometry>
        </mxCell>
        <mxCell id="khi4Rz78MZYqU8x7mJag-15" value="&lt;div style=&quot;background-color: rgb(255, 255, 255); font-family: Consolas, Consolas, &amp;quot;Courier New&amp;quot;, monospace; font-size: 18px; line-height: 24px;&quot;&gt;&lt;div style=&quot;line-height: 24px;&quot;&gt;InnerRoomSendToStreamModule&lt;/div&gt;&lt;/div&gt;&lt;div style=&quot;background-color: rgb(255, 255, 255); font-family: Consolas, Consolas, &amp;quot;Courier New&amp;quot;, monospace; font-size: 18px; line-height: 24px;&quot;&gt;&lt;div style=&quot;line-height: 24px;&quot;&gt;&lt;div style=&quot;line-height: 24px;&quot;&gt;&lt;span style=&quot;color: rgba(0, 0, 0, 0); font-family: monospace; font-size: 0px; text-align: start; background-color: rgb(248, 249, 250);&quot;&gt;%3CmxGraphModel%3E%3Croot%3E%3CmxCell%20id%3D%220%22%2F%3E%3CmxCell%20id%3D%221%22%20parent%3D%220%22%2F%3E%3CmxCell%20id%3D%222%22%20value%3D%22%26lt%3Bdiv%20style%3D%26quot%3Bbackground-color%3A%20rgb(255%2C%20255%2C%20255)%3B%20font-family%3A%20Consolas%2C%20Consolas%2C%20%26amp%3Bquot%3BCourier%20New%26amp%3Bquot%3B%2C%20monospace%3B%20font-size%3A%2018px%3B%20line-height%3A%2024px%3B%26quot%3B%26gt%3BHandlerMeetingJoin%26lt%3B%2Fdiv%26gt%3B%26lt%3Bdiv%20style%3D%26quot%3Bbackground-color%3A%20rgb(255%2C%20255%2C%20255)%3B%20font-family%3A%20Consolas%2C%20Consolas%2C%20%26amp%3Bquot%3BCourier%20New%26amp%3Bquot%3B%2C%20monospace%3B%20font-size%3A%2018px%3B%20line-height%3A%2024px%3B%26quot%3B%26gt%3B%26lt%3Bdiv%20style%3D%26quot%3Bline-height%3A%2024px%3B%26quot%3B%26gt%3B%26lt%3Bdiv%20style%3D%26quot%3Bline-height%3A%2024px%3B%26quot%3B%26gt%3BLiveProcAfterResponse%26lt%3B%2Fdiv%26gt%3B%26lt%3B%2Fdiv%26gt%3B%26lt%3B%2Fdiv%26gt%3B%22%20style%3D%22rounded%3D0%3BwhiteSpace%3Dwrap%3Bhtml%3D1%3B%22%20vertex%3D%221%22%20parent%3D%221%22%3E%3CmxGeometry%20x%3D%22190%22%20y%3D%22150%22%20width%3D%22420%22%20height%3D%2260%22%20as%3D%22geometry%22%2F%3E%3C%2FmxCell%3E%3C%2Froot%3E%3C%2FmxGraphModel%3E&lt;/span&gt;&lt;span style=&quot;&quot;&gt;UserStateChangeNotify&lt;/span&gt;&lt;/div&gt;&lt;/div&gt;&lt;/div&gt;" style="rounded=0;whiteSpace=wrap;html=1;" vertex="1" parent="1">
          <mxGeometry x="190" y="430" width="420" height="60" as="geometry" />
        </mxCell>
        <mxCell id="khi4Rz78MZYqU8x7mJag-16" value="&lt;div style=&quot;background-color: rgb(255, 255, 255); font-family: Consolas, Consolas, &amp;quot;Courier New&amp;quot;, monospace; font-size: 18px; line-height: 24px;&quot;&gt;&lt;b&gt;LiveProcAfterResponse&lt;/b&gt;&lt;/div&gt;" style="whiteSpace=wrap;html=1;" vertex="1" parent="1">
          <mxGeometry x="-110" y="40" width="230" height="60" as="geometry" />
        </mxCell>
        <mxCell id="khi4Rz78MZYqU8x7mJag-17" value="&lt;div style=&quot;background-color: rgb(255, 255, 255); font-family: Consolas, Consolas, &amp;quot;Courier New&amp;quot;, monospace; font-size: 18px; line-height: 24px;&quot;&gt;&lt;div style=&quot;line-height: 24px;&quot;&gt;&lt;b&gt;CacheProcAfterResponse&lt;/b&gt;&lt;/div&gt;&lt;/div&gt;" style="whiteSpace=wrap;html=1;" vertex="1" parent="1">
          <mxGeometry x="-110" y="620" width="290" height="60" as="geometry" />
        </mxCell>
        <mxCell id="khi4Rz78MZYqU8x7mJag-18" value="&lt;div style=&quot;background-color: rgb(255, 255, 255); font-family: Consolas, Consolas, &amp;quot;Courier New&amp;quot;, monospace; font-size: 18px; line-height: 24px;&quot;&gt;HandlerMeetingJoin&lt;/div&gt;&lt;div style=&quot;background-color: rgb(255, 255, 255); font-family: Consolas, Consolas, &amp;quot;Courier New&amp;quot;, monospace; font-size: 18px; line-height: 24px;&quot;&gt;&lt;div style=&quot;line-height: 24px;&quot;&gt;IsSuccDoServiceLogicAfterResponseDefaultV2&lt;/div&gt;&lt;/div&gt;" style="rounded=0;whiteSpace=wrap;html=1;" vertex="1" parent="1">
          <mxGeometry x="240" y="620" width="420" height="60" as="geometry" />
        </mxCell>
        <mxCell id="khi4Rz78MZYqU8x7mJag-19" value="&lt;div style=&quot;background-color: rgb(255, 255, 255); font-family: Consolas, Consolas, &amp;quot;Courier New&amp;quot;, monospace; font-size: 18px; line-height: 24px;&quot;&gt;HandlerMeetingJoin&lt;/div&gt;&lt;div style=&quot;background-color: rgb(255, 255, 255); font-family: Consolas, Consolas, &amp;quot;Courier New&amp;quot;, monospace; font-size: 18px; line-height: 24px;&quot;&gt;&lt;div style=&quot;line-height: 24px;&quot;&gt;&lt;div style=&quot;line-height: 24px;&quot;&gt;&lt;div style=&quot;line-height: 24px;&quot;&gt;CacheProcAfterResponse&lt;/div&gt;&lt;/div&gt;&lt;/div&gt;&lt;/div&gt;" style="rounded=0;whiteSpace=wrap;html=1;" vertex="1" parent="1">
          <mxGeometry x="240" y="732" width="420" height="60" as="geometry" />
        </mxCell>
        <mxCell id="khi4Rz78MZYqU8x7mJag-20" value="" style="endArrow=none;html=1;rounded=0;exitX=1.006;exitY=0.892;exitDx=0;exitDy=0;exitPerimeter=0;entryX=0.5;entryY=0;entryDx=0;entryDy=0;" edge="1" parent="1">
          <mxGeometry width="50" height="50" relative="1" as="geometry">
            <mxPoint x="440" y="680" as="sourcePoint" />
            <mxPoint x="440" y="730" as="targetPoint" />
          </mxGeometry>
        </mxCell>
        <mxCell id="khi4Rz78MZYqU8x7mJag-22" value="" style="endArrow=none;html=1;rounded=0;" edge="1" parent="1">
          <mxGeometry width="50" height="50" relative="1" as="geometry">
            <mxPoint x="150" y="862" as="sourcePoint" />
            <mxPoint x="350" y="792" as="targetPoint" />
          </mxGeometry>
        </mxCell>
        <mxCell id="khi4Rz78MZYqU8x7mJag-23" value="&lt;div style=&quot;background-color: rgb(255, 255, 255); font-family: Consolas, Consolas, &amp;quot;Courier New&amp;quot;, monospace; font-size: 18px; line-height: 24px;&quot;&gt;is_waiting_room_logic_&lt;/div&gt;&lt;div style=&quot;background-color: rgb(255, 255, 255); font-family: Consolas, Consolas, &amp;quot;Courier New&amp;quot;, monospace; font-size: 18px; line-height: 24px;&quot;&gt;&lt;b&gt;break&lt;/b&gt;&lt;/div&gt;" style="rounded=0;whiteSpace=wrap;html=1;" vertex="1" parent="1">
          <mxGeometry x="100" y="862" width="260" height="80" as="geometry" />
        </mxCell>
        <mxCell id="khi4Rz78MZYqU8x7mJag-25" value="&lt;div style=&quot;background-color: rgb(255, 255, 255); font-family: Consolas, Consolas, &amp;quot;Courier New&amp;quot;, monospace; font-size: 18px; line-height: 24px;&quot;&gt;&lt;div style=&quot;line-height: 24px;&quot;&gt;AddMemberInfoToAlreadyJoinList&lt;/div&gt;&lt;/div&gt;" style="rounded=0;whiteSpace=wrap;html=1;" vertex="1" parent="1">
          <mxGeometry x="470" y="862" width="300" height="80" as="geometry" />
        </mxCell>
        <mxCell id="khi4Rz78MZYqU8x7mJag-26" value="" style="endArrow=none;html=1;rounded=0;" edge="1" parent="1">
          <mxGeometry width="50" height="50" relative="1" as="geometry">
            <mxPoint x="680" y="860" as="sourcePoint" />
            <mxPoint x="540" y="790" as="targetPoint" />
          </mxGeometry>
        </mxCell>
        <mxCell id="khi4Rz78MZYqU8x7mJag-27" value="" style="endArrow=none;html=1;rounded=0;exitX=1.006;exitY=0.892;exitDx=0;exitDy=0;exitPerimeter=0;" edge="1" parent="1">
          <mxGeometry width="50" height="50" relative="1" as="geometry">
            <mxPoint x="440" y="792" as="sourcePoint" />
            <mxPoint x="440.5" y="1012" as="targetPoint" />
          </mxGeometry>
        </mxCell>
        <mxCell id="khi4Rz78MZYqU8x7mJag-28" value="&lt;div style=&quot;background-color: rgb(255, 255, 255); font-family: Consolas, Consolas, &amp;quot;Courier New&amp;quot;, monospace; font-size: 18px; line-height: 24px;&quot;&gt;&lt;div style=&quot;line-height: 24px;&quot;&gt;&lt;div style=&quot;line-height: 24px;&quot;&gt;DelFromKickOutList&lt;/div&gt;&lt;/div&gt;&lt;/div&gt;" style="rounded=0;whiteSpace=wrap;html=1;" vertex="1" parent="1">
          <mxGeometry x="230" y="1010" width="420" height="60" as="geometry" />
        </mxCell>
        <mxCell id="khi4Rz78MZYqU8x7mJag-29" value="&lt;div style=&quot;background-color: rgb(255, 255, 255); font-family: Consolas, Consolas, &amp;quot;Courier New&amp;quot;, monospace; font-size: 18px; line-height: 24px;&quot;&gt;&lt;div style=&quot;line-height: 24px;&quot;&gt;&lt;div style=&quot;line-height: 24px;&quot;&gt;&lt;b&gt;LastJoinMeetingProcAfterResponse&lt;/b&gt;&lt;/div&gt;&lt;/div&gt;&lt;/div&gt;" style="whiteSpace=wrap;html=1;" vertex="1" parent="1">
          <mxGeometry x="-110" y="1220" width="320" height="60" as="geometry" />
        </mxCell>
        <mxCell id="khi4Rz78MZYqU8x7mJag-30" value="&lt;div style=&quot;background-color: rgb(255, 255, 255); font-family: Consolas, Consolas, &amp;quot;Courier New&amp;quot;, monospace; font-size: 18px; line-height: 24px;&quot;&gt;HandlerMeetingJoin&lt;/div&gt;&lt;div style=&quot;background-color: rgb(255, 255, 255); font-family: Consolas, Consolas, &amp;quot;Courier New&amp;quot;, monospace; font-size: 18px; line-height: 24px;&quot;&gt;&lt;div style=&quot;line-height: 24px;&quot;&gt;IsSuccDoServiceLogicAfterResponseDefaultV2&lt;/div&gt;&lt;/div&gt;" style="rounded=0;whiteSpace=wrap;html=1;" vertex="1" parent="1">
          <mxGeometry x="240" y="1220" width="420" height="60" as="geometry" />
        </mxCell>
        <mxCell id="khi4Rz78MZYqU8x7mJag-31" value="&lt;div style=&quot;background-color: rgb(255, 255, 255); font-family: Consolas, Consolas, &amp;quot;Courier New&amp;quot;, monospace; font-size: 18px; line-height: 24px;&quot;&gt;HandlerMeetingJoin&lt;/div&gt;&lt;div style=&quot;background-color: rgb(255, 255, 255); font-family: Consolas, Consolas, &amp;quot;Courier New&amp;quot;, monospace; font-size: 18px; line-height: 24px;&quot;&gt;&lt;div style=&quot;line-height: 24px;&quot;&gt;&lt;div style=&quot;line-height: 24px;&quot;&gt;&lt;div style=&quot;line-height: 24px;&quot;&gt;&lt;div style=&quot;line-height: 24px;&quot;&gt;LastJoinMeetingProcAfterResponse&lt;/div&gt;&lt;/div&gt;&lt;/div&gt;&lt;/div&gt;&lt;/div&gt;" style="rounded=0;whiteSpace=wrap;html=1;" vertex="1" parent="1">
          <mxGeometry x="240" y="1332" width="420" height="60" as="geometry" />
        </mxCell>
        <mxCell id="khi4Rz78MZYqU8x7mJag-32" value="" style="endArrow=none;html=1;rounded=0;exitX=1.006;exitY=0.892;exitDx=0;exitDy=0;exitPerimeter=0;entryX=0.5;entryY=0;entryDx=0;entryDy=0;" edge="1" parent="1">
          <mxGeometry width="50" height="50" relative="1" as="geometry">
            <mxPoint x="440" y="1280" as="sourcePoint" />
            <mxPoint x="440" y="1330" as="targetPoint" />
          </mxGeometry>
        </mxCell>
        <mxCell id="khi4Rz78MZYqU8x7mJag-33" value="" style="endArrow=none;html=1;rounded=0;" edge="1" parent="1">
          <mxGeometry width="50" height="50" relative="1" as="geometry">
            <mxPoint x="120" y="1462" as="sourcePoint" />
            <mxPoint x="320" y="1392" as="targetPoint" />
          </mxGeometry>
        </mxCell>
        <mxCell id="khi4Rz78MZYqU8x7mJag-34" value="&lt;div style=&quot;background-color: rgb(255, 255, 255); font-family: Consolas, Consolas, &amp;quot;Courier New&amp;quot;, monospace; font-size: 18px; line-height: 24px;&quot;&gt;前会议异常逻辑&lt;/div&gt;&lt;div style=&quot;background-color: rgb(255, 255, 255); font-family: Consolas, Consolas, &amp;quot;Courier New&amp;quot;, monospace; font-size: 18px; line-height: 24px;&quot;&gt;&lt;b&gt;break&lt;/b&gt;&lt;/div&gt;" style="rounded=0;whiteSpace=wrap;html=1;" vertex="1" parent="1">
          <mxGeometry x="70" y="1462" width="260" height="80" as="geometry" />
        </mxCell>
        <mxCell id="khi4Rz78MZYqU8x7mJag-35" value="" style="endArrow=none;html=1;rounded=0;exitX=1.006;exitY=0.892;exitDx=0;exitDy=0;exitPerimeter=0;" edge="1" parent="1">
          <mxGeometry width="50" height="50" relative="1" as="geometry">
            <mxPoint x="439.5" y="1392" as="sourcePoint" />
            <mxPoint x="440" y="1560" as="targetPoint" />
          </mxGeometry>
        </mxCell>
        <mxCell id="khi4Rz78MZYqU8x7mJag-36" value="&lt;div style=&quot;background-color: rgb(255, 255, 255); font-family: Consolas, Consolas, &amp;quot;Courier New&amp;quot;, monospace; font-size: 18px; line-height: 24px;&quot;&gt;&lt;div style=&quot;line-height: 24px;&quot;&gt;&lt;div style=&quot;line-height: 24px;&quot;&gt;旧会议处理&lt;/div&gt;&lt;/div&gt;&lt;/div&gt;" style="rounded=0;whiteSpace=wrap;html=1;" vertex="1" parent="1">
          <mxGeometry x="240" y="1560" width="420" height="60" as="geometry" />
        </mxCell>
        <mxCell id="khi4Rz78MZYqU8x7mJag-37" value="&lt;div style=&quot;background-color: rgb(255, 255, 255); font-family: Consolas, Consolas, &amp;quot;Courier New&amp;quot;, monospace; font-size: 18px; line-height: 24px;&quot;&gt;旧会议信息查询&lt;/div&gt;" style="rounded=0;whiteSpace=wrap;html=1;" vertex="1" parent="1">
          <mxGeometry x="870" y="1420" width="210" height="60" as="geometry" />
        </mxCell>
        <mxCell id="khi4Rz78MZYqU8x7mJag-38" value="" style="endArrow=none;html=1;rounded=0;exitX=1;exitY=0.25;exitDx=0;exitDy=0;entryX=0;entryY=0.5;entryDx=0;entryDy=0;" edge="1" parent="1" target="khi4Rz78MZYqU8x7mJag-37">
          <mxGeometry width="50" height="50" relative="1" as="geometry">
            <mxPoint x="660" y="1580" as="sourcePoint" />
            <mxPoint x="790" y="1480" as="targetPoint" />
          </mxGeometry>
        </mxCell>
        <mxCell id="khi4Rz78MZYqU8x7mJag-39" value="&lt;div style=&quot;background-color: rgb(255, 255, 255); font-family: Consolas, Consolas, &amp;quot;Courier New&amp;quot;, monospace; font-size: 18px; line-height: 24px;&quot;&gt;旧会议状态判断&lt;/div&gt;" style="rounded=0;whiteSpace=wrap;html=1;" vertex="1" parent="1">
          <mxGeometry x="870" y="1520" width="210" height="60" as="geometry" />
        </mxCell>
        <mxCell id="khi4Rz78MZYqU8x7mJag-40" value="" style="endArrow=none;html=1;rounded=0;exitX=1;exitY=0.5;exitDx=0;exitDy=0;entryX=0;entryY=0.5;entryDx=0;entryDy=0;exitPerimeter=0;" edge="1" parent="1" source="khi4Rz78MZYqU8x7mJag-36" target="khi4Rz78MZYqU8x7mJag-39">
          <mxGeometry width="50" height="50" relative="1" as="geometry">
            <mxPoint x="660" y="1600" as="sourcePoint" />
            <mxPoint x="870" y="1470" as="targetPoint" />
          </mxGeometry>
        </mxCell>
        <mxCell id="khi4Rz78MZYqU8x7mJag-41" value="&lt;div style=&quot;background-color: rgb(255, 255, 255); font-family: Consolas, Consolas, &amp;quot;Courier New&amp;quot;, monospace; font-size: 18px; line-height: 24px;&quot;&gt;旧会议成员列表&lt;/div&gt;" style="rounded=0;whiteSpace=wrap;html=1;" vertex="1" parent="1">
          <mxGeometry x="870" y="1610" width="210" height="60" as="geometry" />
        </mxCell>
        <mxCell id="khi4Rz78MZYqU8x7mJag-42" value="" style="endArrow=none;html=1;rounded=0;exitX=1;exitY=0.75;exitDx=0;exitDy=0;entryX=0;entryY=0.5;entryDx=0;entryDy=0;" edge="1" parent="1" source="khi4Rz78MZYqU8x7mJag-36" target="khi4Rz78MZYqU8x7mJag-41">
          <mxGeometry width="50" height="50" relative="1" as="geometry">
            <mxPoint x="670" y="1610" as="sourcePoint" />
            <mxPoint x="880" y="1560" as="targetPoint" />
          </mxGeometry>
        </mxCell>
        <mxCell id="khi4Rz78MZYqU8x7mJag-43" value="&lt;div style=&quot;background-color: rgb(255, 255, 255); font-family: Consolas, Consolas, &amp;quot;Courier New&amp;quot;, monospace; font-size: 18px; line-height: 24px;&quot;&gt;&lt;div style=&quot;line-height: 24px;&quot;&gt;s2c结构设置&lt;/div&gt;&lt;div style=&quot;line-height: 24px;&quot;&gt;IsFixHeadConnHeadInfoS2CForOldMeeting&lt;/div&gt;&lt;/div&gt;" style="rounded=0;whiteSpace=wrap;html=1;" vertex="1" parent="1">
          <mxGeometry x="870" y="1710" width="380" height="60" as="geometry" />
        </mxCell>
        <mxCell id="khi4Rz78MZYqU8x7mJag-44" value="" style="endArrow=none;html=1;rounded=0;exitX=1.006;exitY=0.893;exitDx=0;exitDy=0;exitPerimeter=0;" edge="1" parent="1" source="khi4Rz78MZYqU8x7mJag-36">
          <mxGeometry width="50" height="50" relative="1" as="geometry">
            <mxPoint x="670" y="1615" as="sourcePoint" />
            <mxPoint x="860" y="1740" as="targetPoint" />
          </mxGeometry>
        </mxCell>
        <mxCell id="khi4Rz78MZYqU8x7mJag-45" value="" style="endArrow=none;html=1;rounded=0;exitX=1.006;exitY=0.893;exitDx=0;exitDy=0;exitPerimeter=0;entryX=0;entryY=0.5;entryDx=0;entryDy=0;" edge="1" parent="1" target="khi4Rz78MZYqU8x7mJag-46">
          <mxGeometry width="50" height="50" relative="1" as="geometry">
            <mxPoint x="630" y="1620" as="sourcePoint" />
            <mxPoint x="860" y="1830" as="targetPoint" />
          </mxGeometry>
        </mxCell>
        <mxCell id="khi4Rz78MZYqU8x7mJag-46" value="&lt;div style=&quot;background-color: rgb(255, 255, 255); font-family: Consolas, Consolas, &amp;quot;Courier New&amp;quot;, monospace; font-size: 18px; line-height: 24px;&quot;&gt;&lt;div style=&quot;line-height: 24px;&quot;&gt;GetMemberUint64Seq&lt;/div&gt;&lt;/div&gt;" style="rounded=0;whiteSpace=wrap;html=1;" vertex="1" parent="1">
          <mxGeometry x="870" y="1800" width="210" height="60" as="geometry" />
        </mxCell>
        <mxCell id="khi4Rz78MZYqU8x7mJag-47" value="&lt;div style=&quot;background-color: rgb(255, 255, 255); font-family: Consolas, Consolas, &amp;quot;Courier New&amp;quot;, monospace; font-size: 18px; line-height: 24px;&quot;&gt;&lt;div style=&quot;line-height: 24px;&quot;&gt;通知超时退出会议&lt;/div&gt;&lt;div style=&quot;line-height: 24px;&quot;&gt;&lt;div style=&quot;line-height: 24px;&quot;&gt;NotifyAllUserNotFromUinForUserNotifyLogic&lt;/div&gt;&lt;/div&gt;&lt;/div&gt;" style="rounded=0;whiteSpace=wrap;html=1;" vertex="1" parent="1">
          <mxGeometry x="610" y="1900" width="410" height="60" as="geometry" />
        </mxCell>
        <mxCell id="khi4Rz78MZYqU8x7mJag-48" value="" style="endArrow=none;html=1;rounded=0;exitX=1.006;exitY=0.893;exitDx=0;exitDy=0;exitPerimeter=0;entryX=0.5;entryY=0;entryDx=0;entryDy=0;" edge="1" parent="1" target="khi4Rz78MZYqU8x7mJag-47">
          <mxGeometry width="50" height="50" relative="1" as="geometry">
            <mxPoint x="570" y="1620" as="sourcePoint" />
            <mxPoint x="800" y="1890" as="targetPoint" />
          </mxGeometry>
        </mxCell>
        <mxCell id="khi4Rz78MZYqU8x7mJag-50" value="&lt;div style=&quot;background-color: rgb(255, 255, 255); font-family: Consolas, Consolas, &amp;quot;Courier New&amp;quot;, monospace; font-size: 18px; line-height: 24px;&quot;&gt;&lt;div style=&quot;line-height: 24px;&quot;&gt;&lt;div style=&quot;line-height: 24px;&quot;&gt;ProcessSendReq&lt;/div&gt;&lt;/div&gt;&lt;/div&gt;" style="rounded=0;whiteSpace=wrap;html=1;" vertex="1" parent="1">
          <mxGeometry x="380" y="1900" width="210" height="60" as="geometry" />
        </mxCell>
        <mxCell id="khi4Rz78MZYqU8x7mJag-51" value="" style="endArrow=none;html=1;rounded=0;exitX=1;exitY=0.5;exitDx=0;exitDy=0;entryX=0.571;entryY=0;entryDx=0;entryDy=0;exitPerimeter=0;entryPerimeter=0;" edge="1" parent="1" target="khi4Rz78MZYqU8x7mJag-50">
          <mxGeometry width="50" height="50" relative="1" as="geometry">
            <mxPoint x="500" y="1620" as="sourcePoint" />
            <mxPoint x="710" y="1580" as="targetPoint" />
          </mxGeometry>
        </mxCell>
        <mxCell id="khi4Rz78MZYqU8x7mJag-52" value="" style="endArrow=none;html=1;rounded=0;exitX=1;exitY=0.5;exitDx=0;exitDy=0;exitPerimeter=0;entryX=0.5;entryY=0;entryDx=0;entryDy=0;" edge="1" parent="1" target="khi4Rz78MZYqU8x7mJag-53">
          <mxGeometry width="50" height="50" relative="1" as="geometry">
            <mxPoint x="430.09000000000003" y="1620" as="sourcePoint" />
            <mxPoint x="300" y="1890" as="targetPoint" />
          </mxGeometry>
        </mxCell>
        <mxCell id="khi4Rz78MZYqU8x7mJag-53" value="&lt;div style=&quot;background-color: rgb(255, 255, 255); font-family: Consolas, Consolas, &amp;quot;Courier New&amp;quot;, monospace; font-size: 18px; line-height: 24px;&quot;&gt;&lt;div style=&quot;line-height: 24px;&quot;&gt;&lt;div style=&quot;line-height: 24px;&quot;&gt;分组会议逻辑&lt;/div&gt;&lt;/div&gt;&lt;/div&gt;" style="rounded=0;whiteSpace=wrap;html=1;" vertex="1" parent="1">
          <mxGeometry x="140" y="1900" width="210" height="60" as="geometry" />
        </mxCell>
        <mxCell id="khi4Rz78MZYqU8x7mJag-54" value="&lt;div style=&quot;background-color: rgb(255, 255, 255); font-family: Consolas, Consolas, &amp;quot;Courier New&amp;quot;, monospace; font-size: 18px; line-height: 24px;&quot;&gt;&lt;div style=&quot;line-height: 24px;&quot;&gt;&lt;div style=&quot;line-height: 24px;&quot;&gt;CheckClearMediaRoom&lt;/div&gt;&lt;/div&gt;&lt;/div&gt;" style="rounded=0;whiteSpace=wrap;html=1;" vertex="1" parent="1">
          <mxGeometry x="-30" y="1820" width="210" height="60" as="geometry" />
        </mxCell>
        <mxCell id="khi4Rz78MZYqU8x7mJag-55" value="" style="endArrow=none;html=1;rounded=0;exitX=1.006;exitY=0.893;exitDx=0;exitDy=0;exitPerimeter=0;entryX=0.557;entryY=0.022;entryDx=0;entryDy=0;entryPerimeter=0;" edge="1" parent="1" target="khi4Rz78MZYqU8x7mJag-54">
          <mxGeometry width="50" height="50" relative="1" as="geometry">
            <mxPoint x="351.26" y="1620" as="sourcePoint" />
            <mxPoint x="548.74" y="1746.42" as="targetPoint" />
          </mxGeometry>
        </mxCell>
        <mxCell id="khi4Rz78MZYqU8x7mJag-56" value="&lt;div style=&quot;background-color: rgb(255, 255, 255); font-family: Consolas, Consolas, &amp;quot;Courier New&amp;quot;, monospace; font-size: 18px; line-height: 24px;&quot;&gt;&lt;div style=&quot;line-height: 24px;&quot;&gt;&lt;div style=&quot;line-height: 24px;&quot;&gt;DB记录成员更新&lt;/div&gt;&lt;/div&gt;&lt;/div&gt;" style="rounded=0;whiteSpace=wrap;html=1;" vertex="1" parent="1">
          <mxGeometry x="-160" y="1724" width="210" height="60" as="geometry" />
        </mxCell>
        <mxCell id="khi4Rz78MZYqU8x7mJag-57" value="" style="endArrow=none;html=1;rounded=0;exitX=1.006;exitY=0.893;exitDx=0;exitDy=0;exitPerimeter=0;entryX=1;entryY=0.75;entryDx=0;entryDy=0;" edge="1" parent="1" target="khi4Rz78MZYqU8x7mJag-56">
          <mxGeometry width="50" height="50" relative="1" as="geometry">
            <mxPoint x="240.00000000000023" y="1600" as="sourcePoint" />
            <mxPoint x="-24.290000000000205" y="1801.3200000000002" as="targetPoint" />
          </mxGeometry>
        </mxCell>
        <mxCell id="khi4Rz78MZYqU8x7mJag-58" value="&lt;div style=&quot;background-color: rgb(255, 255, 255); font-family: Consolas, Consolas, &amp;quot;Courier New&amp;quot;, monospace; font-size: 18px; line-height: 24px;&quot;&gt;&lt;div style=&quot;line-height: 24px;&quot;&gt;&lt;div style=&quot;line-height: 24px;&quot;&gt;附属设备剔除&lt;/div&gt;&lt;/div&gt;&lt;/div&gt;" style="rounded=0;whiteSpace=wrap;html=1;" vertex="1" parent="1">
          <mxGeometry x="-160" y="1610" width="210" height="60" as="geometry" />
        </mxCell>
        <mxCell id="khi4Rz78MZYqU8x7mJag-59" value="" style="endArrow=none;html=1;rounded=0;exitX=1.006;exitY=0.893;exitDx=0;exitDy=0;exitPerimeter=0;entryX=1;entryY=0.5;entryDx=0;entryDy=0;" edge="1" parent="1" target="khi4Rz78MZYqU8x7mJag-58">
          <mxGeometry width="50" height="50" relative="1" as="geometry">
            <mxPoint x="240" y="1580" as="sourcePoint" />
            <mxPoint x="50" y="1749" as="targetPoint" />
          </mxGeometry>
        </mxCell>
        <mxCell id="khi4Rz78MZYqU8x7mJag-60" value="&lt;div style=&quot;background-color: rgb(255, 255, 255); font-family: Consolas, Consolas, &amp;quot;Courier New&amp;quot;, monospace; font-size: 18px; line-height: 24px;&quot;&gt;&lt;div style=&quot;line-height: 24px;&quot;&gt;&lt;div style=&quot;line-height: 24px;&quot;&gt;&lt;b&gt;LastJoinMeetingProcAfterResponse&lt;/b&gt;&lt;/div&gt;&lt;/div&gt;&lt;/div&gt;" style="whiteSpace=wrap;html=1;" vertex="1" parent="1">
          <mxGeometry x="-100" y="2080" width="320" height="60" as="geometry" />
        </mxCell>
        <mxCell id="khi4Rz78MZYqU8x7mJag-61" value="&lt;div style=&quot;background-color: rgb(255, 255, 255); font-family: Consolas, Consolas, &amp;quot;Courier New&amp;quot;, monospace; font-size: 18px; line-height: 24px;&quot;&gt;HandlerMeetingJoin&lt;/div&gt;&lt;div style=&quot;background-color: rgb(255, 255, 255); font-family: Consolas, Consolas, &amp;quot;Courier New&amp;quot;, monospace; font-size: 18px; line-height: 24px;&quot;&gt;&lt;div style=&quot;line-height: 24px;&quot;&gt;IsSuccDoServiceLogicAfterResponseDefaultV2&lt;/div&gt;&lt;/div&gt;" style="rounded=0;whiteSpace=wrap;html=1;" vertex="1" parent="1">
          <mxGeometry x="250" y="2080" width="420" height="60" as="geometry" />
        </mxCell>
        <mxCell id="khi4Rz78MZYqU8x7mJag-62" value="&lt;div style=&quot;background-color: rgb(255, 255, 255); font-family: Consolas, Consolas, &amp;quot;Courier New&amp;quot;, monospace; font-size: 18px; line-height: 24px;&quot;&gt;HandlerMeetingJoin&lt;/div&gt;&lt;div style=&quot;background-color: rgb(255, 255, 255); font-family: Consolas, Consolas, &amp;quot;Courier New&amp;quot;, monospace; font-size: 18px; line-height: 24px;&quot;&gt;&lt;div style=&quot;line-height: 24px;&quot;&gt;&lt;div style=&quot;line-height: 24px;&quot;&gt;&lt;div style=&quot;line-height: 24px;&quot;&gt;&lt;div style=&quot;line-height: 24px;&quot;&gt;&lt;div style=&quot;line-height: 24px;&quot;&gt;MraJoinProcAfterResponse&lt;/div&gt;&lt;/div&gt;&lt;/div&gt;&lt;/div&gt;&lt;/div&gt;&lt;/div&gt;" style="rounded=0;whiteSpace=wrap;html=1;" vertex="1" parent="1">
          <mxGeometry x="250" y="2192" width="420" height="60" as="geometry" />
        </mxCell>
        <mxCell id="khi4Rz78MZYqU8x7mJag-63" value="" style="endArrow=none;html=1;rounded=0;exitX=1.006;exitY=0.892;exitDx=0;exitDy=0;exitPerimeter=0;entryX=0.5;entryY=0;entryDx=0;entryDy=0;" edge="1" parent="1">
          <mxGeometry width="50" height="50" relative="1" as="geometry">
            <mxPoint x="450" y="2140" as="sourcePoint" />
            <mxPoint x="450" y="2190" as="targetPoint" />
          </mxGeometry>
        </mxCell>
        <mxCell id="khi4Rz78MZYqU8x7mJag-64" value="" style="endArrow=none;html=1;rounded=0;" edge="1" parent="1">
          <mxGeometry width="50" height="50" relative="1" as="geometry">
            <mxPoint x="120" y="2322" as="sourcePoint" />
            <mxPoint x="320" y="2252" as="targetPoint" />
          </mxGeometry>
        </mxCell>
        <mxCell id="khi4Rz78MZYqU8x7mJag-65" value="&lt;div style=&quot;background-color: rgb(255, 255, 255); font-family: Consolas, Consolas, &amp;quot;Courier New&amp;quot;, monospace; font-size: 18px; line-height: 24px;&quot;&gt;is_waiting_room_logic_&lt;/div&gt;&lt;div style=&quot;background-color: rgb(255, 255, 255); font-family: Consolas, Consolas, &amp;quot;Courier New&amp;quot;, monospace; font-size: 18px; line-height: 24px;&quot;&gt;&lt;b&gt;break&lt;/b&gt;&lt;/div&gt;" style="rounded=0;whiteSpace=wrap;html=1;" vertex="1" parent="1">
          <mxGeometry x="70" y="2322" width="260" height="80" as="geometry" />
        </mxCell>
        <mxCell id="khi4Rz78MZYqU8x7mJag-66" value="" style="endArrow=none;html=1;rounded=0;exitX=1.006;exitY=0.892;exitDx=0;exitDy=0;exitPerimeter=0;" edge="1" parent="1">
          <mxGeometry width="50" height="50" relative="1" as="geometry">
            <mxPoint x="449.5" y="2252" as="sourcePoint" />
            <mxPoint x="450" y="2440" as="targetPoint" />
          </mxGeometry>
        </mxCell>
        <mxCell id="khi4Rz78MZYqU8x7mJag-67" value="&lt;div style=&quot;background-color: rgb(255, 255, 255); font-family: Consolas, Consolas, &amp;quot;Courier New&amp;quot;, monospace; font-size: 18px; line-height: 24px;&quot;&gt;&lt;div style=&quot;line-height: 24px;&quot;&gt;&lt;div style=&quot;line-height: 24px;&quot;&gt;&lt;div style=&quot;line-height: 24px;&quot;&gt;CheckOldMraInviteeJoin&lt;/div&gt;&lt;/div&gt;&lt;/div&gt;&lt;/div&gt;" style="rounded=0;whiteSpace=wrap;html=1;" vertex="1" parent="1">
          <mxGeometry x="345" y="2440" width="215" height="60" as="geometry" />
        </mxCell>
        <mxCell id="khi4Rz78MZYqU8x7mJag-68" value="&lt;div style=&quot;background-color: rgb(255, 255, 255); font-family: Consolas, Consolas, &amp;quot;Courier New&amp;quot;, monospace; font-size: 18px; line-height: 24px;&quot;&gt;非旧版无需处理&lt;/div&gt;" style="rounded=0;whiteSpace=wrap;html=1;" vertex="1" parent="1">
          <mxGeometry x="760" y="2350" width="210" height="60" as="geometry" />
        </mxCell>
        <mxCell id="khi4Rz78MZYqU8x7mJag-69" value="" style="endArrow=none;html=1;rounded=0;" edge="1" parent="1">
          <mxGeometry width="50" height="50" relative="1" as="geometry">
            <mxPoint x="560" y="2450" as="sourcePoint" />
            <mxPoint x="760" y="2380" as="targetPoint" />
          </mxGeometry>
        </mxCell>
        <mxCell id="khi4Rz78MZYqU8x7mJag-70" value="&lt;div style=&quot;background-color: rgb(255, 255, 255); font-family: Consolas, Consolas, &amp;quot;Courier New&amp;quot;, monospace; font-size: 18px; line-height: 24px;&quot;&gt;&lt;div style=&quot;line-height: 24px;&quot;&gt;GetAllMemberValueList&lt;/div&gt;&lt;/div&gt;" style="rounded=0;whiteSpace=wrap;html=1;" vertex="1" parent="1">
          <mxGeometry x="760" y="2460" width="210" height="60" as="geometry" />
        </mxCell>
        <mxCell id="khi4Rz78MZYqU8x7mJag-71" value="" style="endArrow=none;html=1;rounded=0;entryX=0;entryY=0.5;entryDx=0;entryDy=0;" edge="1" parent="1" target="khi4Rz78MZYqU8x7mJag-70">
          <mxGeometry width="50" height="50" relative="1" as="geometry">
            <mxPoint x="560" y="2472" as="sourcePoint" />
            <mxPoint x="760" y="2402" as="targetPoint" />
          </mxGeometry>
        </mxCell>
        <mxCell id="khi4Rz78MZYqU8x7mJag-72" value="&lt;div style=&quot;background-color: rgb(255, 255, 255); font-family: Consolas, Consolas, &amp;quot;Courier New&amp;quot;, monospace; font-size: 18px; line-height: 24px;&quot;&gt;&lt;div style=&quot;line-height: 24px;&quot;&gt;&lt;div style=&quot;line-height: 24px;&quot;&gt;GetHash&lt;/div&gt;&lt;/div&gt;&lt;/div&gt;" style="rounded=0;whiteSpace=wrap;html=1;" vertex="1" parent="1">
          <mxGeometry x="760" y="2560" width="210" height="60" as="geometry" />
        </mxCell>
        <mxCell id="khi4Rz78MZYqU8x7mJag-73" value="" style="endArrow=none;html=1;rounded=0;entryX=0;entryY=0.5;entryDx=0;entryDy=0;" edge="1" parent="1" target="khi4Rz78MZYqU8x7mJag-72">
          <mxGeometry width="50" height="50" relative="1" as="geometry">
            <mxPoint x="560" y="2502" as="sourcePoint" />
            <mxPoint x="760" y="2520" as="targetPoint" />
          </mxGeometry>
        </mxCell>
        <mxCell id="khi4Rz78MZYqU8x7mJag-74" value="&lt;div style=&quot;background-color: rgb(255, 255, 255); font-family: Consolas, Consolas, &amp;quot;Courier New&amp;quot;, monospace; font-size: 18px; line-height: 24px;&quot;&gt;&lt;div style=&quot;line-height: 24px;&quot;&gt;&lt;div style=&quot;line-height: 24px;&quot;&gt;删除成员逻辑&lt;/div&gt;&lt;/div&gt;&lt;/div&gt;" style="rounded=0;whiteSpace=wrap;html=1;" vertex="1" parent="1">
          <mxGeometry x="570" y="2670" width="210" height="60" as="geometry" />
        </mxCell>
        <mxCell id="khi4Rz78MZYqU8x7mJag-75" value="" style="endArrow=none;html=1;rounded=0;entryX=0.541;entryY=0.004;entryDx=0;entryDy=0;entryPerimeter=0;" edge="1" parent="1" target="khi4Rz78MZYqU8x7mJag-74">
          <mxGeometry width="50" height="50" relative="1" as="geometry">
            <mxPoint x="500" y="2500" as="sourcePoint" />
            <mxPoint x="700" y="2588" as="targetPoint" />
          </mxGeometry>
        </mxCell>
      </root>
    </mxGraphModel>
  </diagram>
</mxfile>
